<mxfile host="app.diagrams.net" modified="2022-01-24T22:32:16.801Z" agent="5.0 (Windows NT 10.0; Win64; x64) AppleWebKit/537.36 (KHTML, like Gecko) Chrome/97.0.4692.99 Safari/537.36" etag="Apc4bAcY4-lngN6qN3_k" version="16.4.6" type="github">
  <diagram id="AQ_xeCLA5CHnfTedvfmn" name="Page-1">
    <mxGraphModel dx="1053" dy="561" grid="1" gridSize="10" guides="1" tooltips="1" connect="1" arrows="1" fold="1" page="1" pageScale="1" pageWidth="850" pageHeight="1100" background="#C7C7C7" math="0" shadow="0">
      <root>
        <mxCell id="0" />
        <mxCell id="1" parent="0" />
        <mxCell id="ErjzjzOSxfrfrCSd8GPd-5" value="" style="rounded=1;whiteSpace=wrap;html=1;rotation=90;" vertex="1" parent="1">
          <mxGeometry x="137.5" y="207.5" width="575" height="320" as="geometry" />
        </mxCell>
        <mxCell id="ErjzjzOSxfrfrCSd8GPd-7" value="" style="endArrow=none;html=1;rounded=0;strokeWidth=3;" edge="1" parent="1">
          <mxGeometry width="50" height="50" relative="1" as="geometry">
            <mxPoint x="300" y="140" as="sourcePoint" />
            <mxPoint x="320" y="140" as="targetPoint" />
          </mxGeometry>
        </mxCell>
        <mxCell id="ErjzjzOSxfrfrCSd8GPd-8" value="" style="endArrow=none;html=1;strokeWidth=3;curved=1;shadow=0;" edge="1" parent="1">
          <mxGeometry width="50" height="50" relative="1" as="geometry">
            <mxPoint x="300" y="130" as="sourcePoint" />
            <mxPoint x="320" y="130" as="targetPoint" />
          </mxGeometry>
        </mxCell>
        <mxCell id="ErjzjzOSxfrfrCSd8GPd-9" value="" style="endArrow=none;html=1;rounded=0;strokeWidth=3;" edge="1" parent="1">
          <mxGeometry width="50" height="50" relative="1" as="geometry">
            <mxPoint x="300" y="135" as="sourcePoint" />
            <mxPoint x="320" y="135" as="targetPoint" />
            <Array as="points" />
          </mxGeometry>
        </mxCell>
        <mxCell id="ErjzjzOSxfrfrCSd8GPd-10" value="Search Box" style="rounded=1;whiteSpace=wrap;html=1;strokeWidth=2;opacity=40;perimeterSpacing=0;" vertex="1" parent="1">
          <mxGeometry x="335" y="240" width="190" height="25" as="geometry" />
        </mxCell>
        <mxCell id="ErjzjzOSxfrfrCSd8GPd-11" value="" style="rounded=1;whiteSpace=wrap;html=1;" vertex="1" parent="1">
          <mxGeometry x="320" y="350" width="210" height="250" as="geometry" />
        </mxCell>
        <mxCell id="ErjzjzOSxfrfrCSd8GPd-12" value="&lt;b&gt;&lt;font style=&quot;font-size: 16px&quot; face=&quot;Roboto&quot; data-font-src=&quot;https://fonts.googleapis.com/css?family=Roboto&quot;&gt;Past Searches&lt;/font&gt;&lt;/b&gt;" style="text;html=1;resizable=0;autosize=1;align=center;verticalAlign=middle;points=[];fillColor=none;strokeColor=none;rounded=0;" vertex="1" parent="1">
          <mxGeometry x="365" y="370" width="120" height="20" as="geometry" />
        </mxCell>
        <mxCell id="ErjzjzOSxfrfrCSd8GPd-13" value="" style="pointerEvents=1;verticalLabelPosition=bottom;shadow=0;dashed=0;align=center;html=1;verticalAlign=top;shape=mxgraph.electrical.waveforms.sine_wave;fontFamily=Roboto;fontSource=https%3A%2F%2Ffonts.googleapis.com%2Fcss%3Ffamily%3DRoboto;fontSize=16;strokeWidth=4;" vertex="1" parent="1">
          <mxGeometry x="348" y="460" width="155" height="30" as="geometry" />
        </mxCell>
        <mxCell id="ErjzjzOSxfrfrCSd8GPd-14" value="" style="pointerEvents=1;verticalLabelPosition=bottom;shadow=0;dashed=0;align=center;html=1;verticalAlign=top;shape=mxgraph.electrical.waveforms.sine_wave;fontFamily=Roboto;fontSource=https%3A%2F%2Ffonts.googleapis.com%2Fcss%3Ffamily%3DRoboto;fontSize=16;strokeWidth=4;" vertex="1" parent="1">
          <mxGeometry x="348" y="500" width="155" height="30" as="geometry" />
        </mxCell>
        <mxCell id="ErjzjzOSxfrfrCSd8GPd-15" value="" style="pointerEvents=1;verticalLabelPosition=bottom;shadow=0;dashed=0;align=center;html=1;verticalAlign=top;shape=mxgraph.electrical.waveforms.sine_wave;fontFamily=Roboto;fontSource=https%3A%2F%2Ffonts.googleapis.com%2Fcss%3Ffamily%3DRoboto;fontSize=16;strokeWidth=4;" vertex="1" parent="1">
          <mxGeometry x="348" y="535" width="155" height="30" as="geometry" />
        </mxCell>
        <mxCell id="ErjzjzOSxfrfrCSd8GPd-16" value="&lt;i&gt;Announcements/Messages Area&lt;/i&gt;" style="rounded=1;whiteSpace=wrap;html=1;strokeWidth=2;opacity=20;perimeterSpacing=0;" vertex="1" parent="1">
          <mxGeometry x="305" y="182.5" width="240" height="25" as="geometry" />
        </mxCell>
        <mxCell id="ErjzjzOSxfrfrCSd8GPd-17" value="" style="pointerEvents=1;verticalLabelPosition=bottom;shadow=0;dashed=0;align=center;html=1;verticalAlign=top;shape=mxgraph.electrical.waveforms.sine_wave;fontFamily=Roboto;fontSource=https%3A%2F%2Ffonts.googleapis.com%2Fcss%3Ffamily%3DRoboto;fontSize=16;strokeWidth=4;" vertex="1" parent="1">
          <mxGeometry x="348" y="420" width="155" height="30" as="geometry" />
        </mxCell>
        <mxCell id="ErjzjzOSxfrfrCSd8GPd-18" value="&lt;font style=&quot;font-size: 15px&quot;&gt;LOGO&lt;/font&gt;" style="shape=tape;whiteSpace=wrap;html=1;strokeWidth=2;size=0.19;fontFamily=Roboto;fontSource=https%3A%2F%2Ffonts.googleapis.com%2Fcss%3Ffamily%3DRoboto;fontSize=16;opacity=60;" vertex="1" parent="1">
          <mxGeometry x="470" y="120" width="75" height="30" as="geometry" />
        </mxCell>
      </root>
    </mxGraphModel>
  </diagram>
</mxfile>
